<svg xmlns="http://www.w3.org/2000/svg" xmlns:xlink="http://www.w3.org/1999/xlink" width="2000" zoomAndPan="magnify" viewBox="0 0 1500 1499.999933" height="2000" preserveAspectRatio="xMidYMid meet" version="1.0"><defs><clipPath id="e3e6a3bc6a"><path d="M 67.203125 75.753906 L 1415.703125 75.753906 L 1415.703125 1424.253906 L 67.203125 1424.253906 Z M 67.203125 75.753906 " clip-rule="nonzero"/></clipPath><clipPath id="8542a3dea0"><path d="M 67.203125 150.753906 L 67.203125 1349.246094 C 67.203125 1390.667969 100.78125 1424.246094 142.203125 1424.246094 L 1340.695312 1424.246094 C 1382.117188 1424.246094 1415.695312 1390.667969 1415.695312 1349.246094 L 1415.695312 150.753906 C 1415.695312 109.332031 1382.117188 75.753906 1340.695312 75.753906 L 142.203125 75.753906 C 100.78125 75.753906 67.203125 109.332031 67.203125 150.753906 Z M 67.203125 150.753906 " clip-rule="nonzero"/></clipPath><clipPath id="da2bfaf439"><path d="M 96 104 L 1387 104 L 1387 1396 L 96 1396 Z M 96 104 " clip-rule="nonzero"/></clipPath><clipPath id="2631353469"><path d="M 67.203125 150.753906 L 67.203125 1349.246094 C 67.203125 1390.667969 100.78125 1424.246094 142.203125 1424.246094 L 1340.695312 1424.246094 C 1382.117188 1424.246094 1415.695312 1390.667969 1415.695312 1349.246094 L 1415.695312 150.753906 C 1415.695312 109.332031 1382.117188 75.753906 1340.695312 75.753906 L 142.203125 75.753906 C 100.78125 75.753906 67.203125 109.332031 67.203125 150.753906 Z M 67.203125 150.753906 " clip-rule="nonzero"/></clipPath></defs><g clip-path="url(#e3e6a3bc6a)"><g clip-path="url(#8542a3dea0)"><path fill="#ffffff" d="M 1381.371094 1424.242188 L 101.523438 1424.242188 C 82.644531 1424.242188 67.203125 1408.796875 67.203125 1389.921875 L 67.203125 110.074219 C 67.203125 91.199219 82.644531 75.753906 101.523438 75.753906 L 1381.371094 75.753906 C 1400.246094 75.753906 1415.691406 91.199219 1415.691406 110.074219 L 1415.691406 1389.921875 C 1415.691406 1408.796875 1400.246094 1424.242188 1381.371094 1424.242188 Z M 1381.371094 1424.242188 " fill-opacity="1" fill-rule="nonzero"/></g></g><g clip-path="url(#da2bfaf439)"><g clip-path="url(#2631353469)"><path fill="#ffffff" d="M 1352.199219 1395.070312 L 130.695312 1395.070312 C 111.816406 1395.070312 96.375 1379.625 96.375 1360.75 L 96.375 139.246094 C 96.375 120.371094 111.816406 104.925781 130.695312 104.925781 L 1352.484375 104.925781 C 1371.359375 104.925781 1386.804688 120.371094 1386.804688 139.246094 L 1386.804688 1361.035156 C 1386.519531 1379.625 1371.074219 1395.070312 1352.199219 1395.070312 Z M 1352.199219 1395.070312 " fill-opacity="1" fill-rule="nonzero"/></g></g><path stroke-linecap="butt" transform="matrix(6.009043, 0, 0, 6.0075, -156.419015, 148.249304)" fill="none" stroke-linejoin="miter" d="M 150.000019 19.999854 L 200.000184 50.000112 L 200.000184 109.999978 L 150.000019 140.000236 L 99.999854 109.999978 L 99.999854 50.000112 Z M 150.000019 19.999854 " stroke="#ff5b5b" stroke-width="1" stroke-opacity="1" stroke-miterlimit="4"/><path stroke-linecap="butt" transform="matrix(6.009043, 0, 0, 6.0075, -156.419015, 148.249304)" fill="none" stroke-linejoin="miter" d="M 200.000184 50.000112 L 249.999698 79.99972 L 249.999698 140.000236 L 200.000184 169.999843 L 150.000019 140.000236 L 150.000019 79.99972 Z M 200.000184 50.000112 " stroke="#ff5b5b" stroke-width="1" stroke-opacity="1" stroke-miterlimit="4"/><path stroke-linecap="butt" transform="matrix(6.009043, 0, 0, 6.0075, -156.419015, 148.249304)" fill="none" stroke-linejoin="miter" d="M 99.999854 50.000112 L 150.000019 79.99972 L 150.000019 140.000236 L 99.999854 169.999843 L 49.999689 140.000236 L 49.999689 79.99972 Z M 99.999854 50.000112 " stroke="#ff5b5b" stroke-width="1" stroke-opacity="1" stroke-miterlimit="4"/><path stroke-linecap="butt" transform="matrix(6.009043, 0, 0, 6.0075, -156.419015, 148.249304)" fill="none" stroke-linejoin="miter" d="M 74.999771 140.000236 L 74.999771 59.999981 " stroke="#ff5b5b" stroke-width="1" stroke-opacity="1" stroke-miterlimit="4"/><path stroke-linecap="butt" transform="matrix(6.009043, 0, 0, 6.0075, -156.419015, 148.249304)" fill-opacity="1" fill="#000000" fill-rule="nonzero" stroke-linejoin="miter" d="M 74.999771 59.999981 L 150.000019 109.999978 " stroke="#ff5b5b" stroke-width="1" stroke-opacity="1" stroke-miterlimit="4"/><path stroke-linecap="butt" transform="matrix(6.009043, 0, 0, 6.0075, -156.419015, 148.249304)" fill-opacity="1" fill="#000000" fill-rule="nonzero" stroke-linejoin="miter" d="M 150.000019 109.999978 L 225.000266 59.999981 " stroke="#ff5b5b" stroke-width="1" stroke-opacity="1" stroke-miterlimit="4"/><path stroke-linecap="butt" transform="matrix(6.009043, 0, 0, 6.0075, -156.419015, 148.249304)" fill="none" stroke-linejoin="miter" d="M 225.000266 59.999981 L 225.000266 140.000236 " stroke="#ff5b5b" stroke-width="1" stroke-opacity="1" stroke-miterlimit="4"/><path fill="#ff5b5b" d="M 793.007812 268.398438 C 793.007812 269.972656 792.933594 271.542969 792.777344 273.109375 C 792.625 274.675781 792.394531 276.230469 792.085938 277.773438 C 791.777344 279.320312 791.398438 280.84375 790.941406 282.351562 C 790.484375 283.855469 789.953125 285.335938 789.351562 286.792969 C 788.746094 288.246094 788.074219 289.667969 787.332031 291.054688 C 786.589844 292.441406 785.78125 293.792969 784.90625 295.101562 C 784.035156 296.410156 783.097656 297.671875 782.097656 298.886719 C 781.097656 300.105469 780.042969 301.269531 778.929688 302.382812 C 777.816406 303.496094 776.652344 304.550781 775.433594 305.550781 C 774.21875 306.546875 772.953125 307.484375 771.644531 308.359375 C 770.335938 309.234375 768.988281 310.042969 767.597656 310.785156 C 766.210938 311.527344 764.789062 312.199219 763.332031 312.800781 C 761.878906 313.402344 760.398438 313.933594 758.890625 314.390625 C 757.386719 314.847656 755.859375 315.230469 754.316406 315.535156 C 752.773438 315.84375 751.214844 316.074219 749.648438 316.226562 C 748.082031 316.382812 746.511719 316.460938 744.9375 316.460938 C 743.363281 316.460938 741.792969 316.382812 740.226562 316.226562 C 738.660156 316.074219 737.101562 315.84375 735.558594 315.535156 C 734.015625 315.230469 732.488281 314.847656 730.984375 314.390625 C 729.476562 313.933594 727.996094 313.402344 726.539062 312.800781 C 725.085938 312.199219 723.664062 311.527344 722.277344 310.785156 C 720.886719 310.042969 719.539062 309.234375 718.230469 308.359375 C 716.921875 307.484375 715.65625 306.546875 714.441406 305.550781 C 713.222656 304.550781 712.058594 303.496094 710.945312 302.382812 C 709.832031 301.269531 708.777344 300.105469 707.777344 298.886719 C 706.777344 297.671875 705.839844 296.410156 704.964844 295.101562 C 704.09375 293.792969 703.285156 292.441406 702.542969 291.054688 C 701.800781 289.667969 701.125 288.246094 700.523438 286.792969 C 699.921875 285.335938 699.390625 283.855469 698.933594 282.351562 C 698.476562 280.84375 698.097656 279.320312 697.789062 277.773438 C 697.480469 276.230469 697.25 274.675781 697.097656 273.109375 C 696.941406 271.542969 696.863281 269.972656 696.863281 268.398438 C 696.863281 266.824219 696.941406 265.253906 697.097656 263.6875 C 697.25 262.121094 697.480469 260.566406 697.789062 259.023438 C 698.097656 257.480469 698.476562 255.953125 698.933594 254.449219 C 699.390625 252.941406 699.921875 251.460938 700.523438 250.007812 C 701.125 248.554688 701.800781 247.132812 702.542969 245.742188 C 703.285156 244.355469 704.09375 243.007812 704.964844 241.699219 C 705.839844 240.390625 706.777344 239.128906 707.777344 237.910156 C 708.777344 236.695312 709.832031 235.527344 710.945312 234.414062 C 712.058594 233.304688 713.222656 232.246094 714.441406 231.25 C 715.65625 230.25 716.921875 229.3125 718.230469 228.4375 C 719.539062 227.5625 720.886719 226.757812 722.277344 226.015625 C 723.664062 225.273438 725.085938 224.601562 726.539062 223.996094 C 727.996094 223.394531 729.476562 222.867188 730.984375 222.410156 C 732.488281 221.953125 734.015625 221.570312 735.558594 221.261719 C 737.101562 220.957031 738.660156 220.726562 740.226562 220.570312 C 741.792969 220.417969 743.363281 220.339844 744.9375 220.339844 C 746.511719 220.339844 748.082031 220.417969 749.648438 220.570312 C 751.214844 220.726562 752.773438 220.957031 754.316406 221.261719 C 755.859375 221.570312 757.386719 221.953125 758.890625 222.410156 C 760.398438 222.867188 761.878906 223.394531 763.332031 223.996094 C 764.789062 224.601562 766.210938 225.273438 767.597656 226.015625 C 768.988281 226.757812 770.335938 227.5625 771.644531 228.4375 C 772.953125 229.3125 774.21875 230.25 775.433594 231.25 C 776.652344 232.246094 777.816406 233.304688 778.929688 234.414062 C 780.042969 235.527344 781.097656 236.695312 782.097656 237.910156 C 783.097656 239.128906 784.035156 240.390625 784.90625 241.699219 C 785.78125 243.007812 786.589844 244.355469 787.332031 245.742188 C 788.074219 247.132812 788.746094 248.554688 789.351562 250.007812 C 789.953125 251.460938 790.484375 252.941406 790.941406 254.449219 C 791.398438 255.953125 791.777344 257.480469 792.085938 259.023438 C 792.394531 260.566406 792.625 262.121094 792.777344 263.6875 C 792.933594 265.253906 793.007812 266.824219 793.007812 268.398438 Z M 793.007812 268.398438 " fill-opacity="1" fill-rule="nonzero"/><path fill="#ff5b5b" d="M 1093.460938 448.625 C 1093.460938 450.199219 1093.386719 451.769531 1093.230469 453.335938 C 1093.074219 454.902344 1092.84375 456.457031 1092.539062 458 C 1092.230469 459.542969 1091.847656 461.070312 1091.390625 462.574219 C 1090.933594 464.082031 1090.40625 465.5625 1089.800781 467.015625 C 1089.199219 468.46875 1088.527344 469.890625 1087.785156 471.28125 C 1087.042969 472.667969 1086.234375 474.015625 1085.359375 475.324219 C 1084.484375 476.632812 1083.546875 477.898438 1082.550781 479.113281 C 1081.550781 480.328125 1080.496094 481.496094 1079.382812 482.609375 C 1078.269531 483.722656 1077.101562 484.777344 1075.886719 485.773438 C 1074.667969 486.773438 1073.40625 487.710938 1072.097656 488.585938 C 1070.789062 489.460938 1069.4375 490.265625 1068.050781 491.007812 C 1066.660156 491.75 1065.242188 492.421875 1063.785156 493.027344 C 1062.332031 493.628906 1060.851562 494.15625 1059.34375 494.613281 C 1057.835938 495.070312 1056.3125 495.453125 1054.769531 495.761719 C 1053.222656 496.066406 1051.667969 496.296875 1050.101562 496.453125 C 1048.535156 496.605469 1046.964844 496.683594 1045.390625 496.683594 C 1043.816406 496.683594 1042.246094 496.605469 1040.675781 496.453125 C 1039.109375 496.296875 1037.554688 496.066406 1036.011719 495.761719 C 1034.464844 495.453125 1032.941406 495.070312 1031.433594 494.613281 C 1029.929688 494.15625 1028.449219 493.628906 1026.992188 493.027344 C 1025.539062 492.421875 1024.117188 491.75 1022.726562 491.007812 C 1021.339844 490.265625 1019.992188 489.460938 1018.683594 488.585938 C 1017.371094 487.710938 1016.109375 486.773438 1014.894531 485.773438 C 1013.675781 484.777344 1012.511719 483.722656 1011.398438 482.609375 C 1010.285156 481.496094 1009.226562 480.328125 1008.230469 479.113281 C 1007.230469 477.898438 1006.292969 476.632812 1005.417969 475.324219 C 1004.542969 474.015625 1003.734375 472.667969 1002.992188 471.28125 C 1002.25 469.890625 1001.578125 468.46875 1000.976562 467.015625 C 1000.375 465.5625 999.84375 464.082031 999.386719 462.574219 C 998.929688 461.070312 998.546875 459.542969 998.242188 458 C 997.933594 456.457031 997.703125 454.902344 997.546875 453.335938 C 997.394531 451.769531 997.316406 450.199219 997.316406 448.625 C 997.316406 447.050781 997.394531 445.480469 997.546875 443.914062 C 997.703125 442.347656 997.933594 440.792969 998.242188 439.25 C 998.546875 437.703125 998.929688 436.179688 999.386719 434.671875 C 999.84375 433.167969 1000.375 431.6875 1000.976562 430.234375 C 1001.578125 428.777344 1002.25 427.355469 1002.992188 425.96875 C 1003.734375 424.582031 1004.542969 423.230469 1005.417969 421.921875 C 1006.292969 420.613281 1007.230469 419.351562 1008.230469 418.136719 C 1009.226562 416.917969 1010.285156 415.753906 1011.398438 414.640625 C 1012.511719 413.527344 1013.675781 412.472656 1014.894531 411.472656 C 1016.109375 410.476562 1017.371094 409.539062 1018.683594 408.664062 C 1019.992188 407.789062 1021.339844 406.980469 1022.726562 406.238281 C 1024.117188 405.496094 1025.539062 404.824219 1026.992188 404.222656 C 1028.449219 403.621094 1029.929688 403.089844 1031.433594 402.632812 C 1032.941406 402.175781 1034.464844 401.792969 1036.011719 401.488281 C 1037.554688 401.179688 1039.109375 400.949219 1040.675781 400.796875 C 1042.246094 400.640625 1043.816406 400.5625 1045.390625 400.5625 C 1046.964844 400.5625 1048.535156 400.640625 1050.101562 400.796875 C 1051.667969 400.949219 1053.222656 401.179688 1054.769531 401.488281 C 1056.3125 401.792969 1057.835938 402.175781 1059.34375 402.632812 C 1060.851562 403.089844 1062.332031 403.621094 1063.785156 404.222656 C 1065.242188 404.824219 1066.660156 405.496094 1068.050781 406.238281 C 1069.4375 406.980469 1070.789062 407.789062 1072.097656 408.664062 C 1073.40625 409.539062 1074.667969 410.476562 1075.886719 411.472656 C 1077.101562 412.472656 1078.269531 413.527344 1079.382812 414.640625 C 1080.496094 415.753906 1081.550781 416.917969 1082.550781 418.136719 C 1083.546875 419.351562 1084.484375 420.613281 1085.359375 421.921875 C 1086.234375 423.230469 1087.042969 424.582031 1087.785156 425.96875 C 1088.527344 427.355469 1089.199219 428.777344 1089.800781 430.234375 C 1090.40625 431.6875 1090.933594 433.167969 1091.390625 434.671875 C 1091.847656 436.179688 1092.230469 437.703125 1092.539062 439.25 C 1092.84375 440.792969 1093.074219 442.347656 1093.230469 443.914062 C 1093.386719 445.480469 1093.460938 447.050781 1093.460938 448.625 Z M 1093.460938 448.625 " fill-opacity="1" fill-rule="nonzero"/><path fill="#ff5b5b" d="M 1093.460938 809.074219 C 1093.460938 810.648438 1093.386719 812.21875 1093.230469 813.785156 C 1093.074219 815.351562 1092.84375 816.90625 1092.539062 818.449219 C 1092.230469 819.992188 1091.847656 821.519531 1091.390625 823.027344 C 1090.933594 824.53125 1090.40625 826.011719 1089.800781 827.464844 C 1089.199219 828.921875 1088.527344 830.339844 1087.785156 831.730469 C 1087.042969 833.117188 1086.234375 834.464844 1085.359375 835.773438 C 1084.484375 837.082031 1083.546875 838.347656 1082.550781 839.5625 C 1081.550781 840.78125 1080.496094 841.945312 1079.382812 843.058594 C 1078.269531 844.171875 1077.101562 845.226562 1075.886719 846.226562 C 1074.667969 847.222656 1073.40625 848.160156 1072.097656 849.035156 C 1070.789062 849.910156 1069.4375 850.71875 1068.050781 851.460938 C 1066.660156 852.203125 1065.242188 852.875 1063.785156 853.476562 C 1062.332031 854.078125 1060.851562 854.609375 1059.34375 855.066406 C 1057.835938 855.523438 1056.3125 855.902344 1054.769531 856.210938 C 1053.222656 856.519531 1051.667969 856.75 1050.101562 856.902344 C 1048.535156 857.058594 1046.964844 857.132812 1045.390625 857.132812 C 1043.816406 857.132812 1042.246094 857.058594 1040.675781 856.902344 C 1039.109375 856.75 1037.554688 856.519531 1036.011719 856.210938 C 1034.464844 855.902344 1032.941406 855.523438 1031.433594 855.066406 C 1029.929688 854.609375 1028.449219 854.078125 1026.992188 853.476562 C 1025.539062 852.875 1024.117188 852.203125 1022.726562 851.460938 C 1021.339844 850.71875 1019.992188 849.910156 1018.683594 849.035156 C 1017.371094 848.160156 1016.109375 847.222656 1014.894531 846.226562 C 1013.675781 845.226562 1012.511719 844.171875 1011.398438 843.058594 C 1010.285156 841.945312 1009.226562 840.78125 1008.230469 839.5625 C 1007.230469 838.347656 1006.292969 837.082031 1005.417969 835.773438 C 1004.542969 834.464844 1003.734375 833.117188 1002.992188 831.730469 C 1002.25 830.339844 1001.578125 828.921875 1000.976562 827.464844 C 1000.375 826.011719 999.84375 824.53125 999.386719 823.023438 C 998.929688 821.519531 998.546875 819.992188 998.242188 818.449219 C 997.933594 816.90625 997.703125 815.351562 997.546875 813.785156 C 997.394531 812.21875 997.316406 810.648438 997.316406 809.074219 C 997.316406 807.5 997.394531 805.929688 997.546875 804.363281 C 997.703125 802.796875 997.933594 801.242188 998.242188 799.699219 C 998.546875 798.15625 998.929688 796.628906 999.386719 795.125 C 999.84375 793.617188 1000.375 792.136719 1000.976562 790.683594 C 1001.578125 789.226562 1002.25 787.808594 1002.992188 786.417969 C 1003.734375 785.03125 1004.542969 783.683594 1005.417969 782.375 C 1006.292969 781.066406 1007.230469 779.800781 1008.230469 778.585938 C 1009.226562 777.367188 1010.285156 776.203125 1011.398438 775.089844 C 1012.511719 773.976562 1013.675781 772.921875 1014.894531 771.921875 C 1016.109375 770.925781 1017.371094 769.988281 1018.683594 769.113281 C 1019.992188 768.238281 1021.339844 767.429688 1022.726562 766.6875 C 1024.117188 765.945312 1025.539062 765.273438 1026.992188 764.671875 C 1028.449219 764.070312 1029.929688 763.539062 1031.433594 763.082031 C 1032.941406 762.625 1034.464844 762.246094 1036.011719 761.9375 C 1037.554688 761.628906 1039.109375 761.398438 1040.675781 761.246094 C 1042.246094 761.089844 1043.816406 761.015625 1045.390625 761.015625 C 1046.964844 761.015625 1048.535156 761.089844 1050.101562 761.246094 C 1051.667969 761.398438 1053.222656 761.628906 1054.769531 761.9375 C 1056.3125 762.246094 1057.835938 762.625 1059.34375 763.082031 C 1060.851562 763.539062 1062.332031 764.070312 1063.785156 764.671875 C 1065.242188 765.273438 1066.660156 765.945312 1068.050781 766.6875 C 1069.4375 767.429688 1070.789062 768.238281 1072.097656 769.113281 C 1073.40625 769.988281 1074.667969 770.925781 1075.886719 771.921875 C 1077.101562 772.921875 1078.269531 773.976562 1079.382812 775.089844 C 1080.496094 776.203125 1081.550781 777.367188 1082.550781 778.585938 C 1083.546875 779.800781 1084.484375 781.066406 1085.359375 782.375 C 1086.234375 783.683594 1087.042969 785.03125 1087.785156 786.417969 C 1088.527344 787.808594 1089.199219 789.226562 1089.800781 790.683594 C 1090.40625 792.136719 1090.933594 793.617188 1091.390625 795.125 C 1091.847656 796.628906 1092.230469 798.15625 1092.539062 799.699219 C 1092.84375 801.242188 1093.074219 802.796875 1093.230469 804.363281 C 1093.386719 805.929688 1093.460938 807.5 1093.460938 809.074219 Z M 1093.460938 809.074219 " fill-opacity="1" fill-rule="nonzero"/><path fill="#ff5b5b" d="M 793.007812 989.300781 C 793.007812 990.875 792.933594 992.445312 792.777344 994.011719 C 792.625 995.578125 792.394531 997.132812 792.085938 998.675781 C 791.777344 1000.21875 791.398438 1001.746094 790.941406 1003.25 C 790.484375 1004.757812 789.953125 1006.238281 789.351562 1007.691406 C 788.746094 1009.144531 788.074219 1010.566406 787.332031 1011.953125 C 786.589844 1013.34375 785.78125 1014.691406 784.90625 1016 C 784.035156 1017.308594 783.097656 1018.570312 782.097656 1019.789062 C 781.097656 1021.003906 780.042969 1022.167969 778.929688 1023.28125 C 777.816406 1024.394531 776.652344 1025.453125 775.433594 1026.449219 C 774.21875 1027.449219 772.953125 1028.386719 771.644531 1029.257812 C 770.335938 1030.132812 768.988281 1030.941406 767.597656 1031.683594 C 766.210938 1032.425781 764.789062 1033.097656 763.332031 1033.699219 C 761.878906 1034.304688 760.398438 1034.832031 758.890625 1035.289062 C 757.386719 1035.746094 755.859375 1036.128906 754.316406 1036.4375 C 752.773438 1036.742188 751.214844 1036.972656 749.648438 1037.128906 C 748.082031 1037.28125 746.511719 1037.359375 744.9375 1037.359375 C 743.363281 1037.359375 741.792969 1037.28125 740.226562 1037.128906 C 738.660156 1036.972656 737.101562 1036.742188 735.558594 1036.4375 C 734.015625 1036.128906 732.488281 1035.746094 730.984375 1035.289062 C 729.476562 1034.832031 727.996094 1034.304688 726.539062 1033.699219 C 725.085938 1033.097656 723.664062 1032.425781 722.277344 1031.683594 C 720.886719 1030.941406 719.539062 1030.132812 718.230469 1029.257812 C 716.921875 1028.386719 715.65625 1027.449219 714.441406 1026.449219 C 713.222656 1025.453125 712.058594 1024.394531 710.945312 1023.28125 C 709.832031 1022.167969 708.777344 1021.003906 707.777344 1019.789062 C 706.777344 1018.570312 705.839844 1017.308594 704.964844 1016 C 704.09375 1014.691406 703.285156 1013.34375 702.542969 1011.953125 C 701.800781 1010.566406 701.125 1009.144531 700.523438 1007.691406 C 699.921875 1006.238281 699.390625 1004.757812 698.933594 1003.25 C 698.476562 1001.746094 698.097656 1000.21875 697.789062 998.675781 C 697.480469 997.132812 697.25 995.578125 697.097656 994.011719 C 696.941406 992.445312 696.863281 990.875 696.863281 989.300781 C 696.863281 987.726562 696.941406 986.15625 697.097656 984.589844 C 697.25 983.023438 697.480469 981.46875 697.789062 979.921875 C 698.097656 978.378906 698.476562 976.855469 698.933594 975.347656 C 699.390625 973.84375 699.921875 972.363281 700.523438 970.90625 C 701.125 969.453125 701.800781 968.03125 702.542969 966.644531 C 703.285156 965.257812 704.09375 963.90625 704.964844 962.597656 C 705.839844 961.289062 706.777344 960.027344 707.777344 958.808594 C 708.777344 957.59375 709.832031 956.429688 710.945312 955.316406 C 712.058594 954.203125 713.222656 953.148438 714.441406 952.148438 C 715.65625 951.148438 716.921875 950.214844 718.230469 949.339844 C 719.539062 948.464844 720.886719 947.65625 722.277344 946.914062 C 723.664062 946.171875 725.085938 945.5 726.539062 944.898438 C 727.996094 944.296875 729.476562 943.765625 730.984375 943.308594 C 732.488281 942.851562 734.015625 942.46875 735.558594 942.164062 C 737.101562 941.855469 738.660156 941.625 740.226562 941.472656 C 741.792969 941.316406 743.363281 941.238281 744.9375 941.238281 C 746.511719 941.238281 748.082031 941.316406 749.648438 941.472656 C 751.214844 941.625 752.773438 941.855469 754.316406 942.164062 C 755.859375 942.46875 757.386719 942.851562 758.890625 943.308594 C 760.398438 943.765625 761.878906 944.296875 763.332031 944.898438 C 764.789062 945.5 766.210938 946.171875 767.597656 946.914062 C 768.988281 947.65625 770.335938 948.464844 771.644531 949.339844 C 772.953125 950.214844 774.21875 951.148438 775.433594 952.148438 C 776.652344 953.148438 777.816406 954.203125 778.929688 955.316406 C 780.042969 956.429688 781.097656 957.59375 782.097656 958.808594 C 783.097656 960.027344 784.035156 961.289062 784.90625 962.597656 C 785.78125 963.90625 786.589844 965.257812 787.332031 966.644531 C 788.074219 968.03125 788.746094 969.453125 789.351562 970.90625 C 789.953125 972.363281 790.484375 973.84375 790.941406 975.347656 C 791.398438 976.855469 791.777344 978.378906 792.085938 979.921875 C 792.394531 981.46875 792.625 983.023438 792.777344 984.589844 C 792.933594 986.15625 793.007812 987.726562 793.007812 989.300781 Z M 793.007812 989.300781 " fill-opacity="1" fill-rule="nonzero"/><path fill="#ff5b5b" d="M 492.558594 809.074219 C 492.558594 810.648438 492.480469 812.21875 492.324219 813.785156 C 492.171875 815.351562 491.941406 816.90625 491.632812 818.449219 C 491.328125 819.992188 490.945312 821.519531 490.488281 823.027344 C 490.03125 824.53125 489.5 826.011719 488.898438 827.464844 C 488.296875 828.921875 487.625 830.339844 486.882812 831.730469 C 486.140625 833.117188 485.332031 834.464844 484.457031 835.773438 C 483.582031 837.082031 482.644531 838.347656 481.644531 839.5625 C 480.648438 840.78125 479.589844 841.945312 478.476562 843.058594 C 477.363281 844.171875 476.199219 845.226562 474.980469 846.226562 C 473.765625 847.222656 472.5 848.160156 471.191406 849.035156 C 469.882812 849.910156 468.535156 850.71875 467.144531 851.460938 C 465.757812 852.203125 464.335938 852.875 462.882812 853.476562 C 461.425781 854.078125 459.945312 854.609375 458.441406 855.066406 C 456.933594 855.523438 455.40625 855.902344 453.863281 856.210938 C 452.320312 856.519531 450.765625 856.75 449.195312 856.902344 C 447.628906 857.058594 446.058594 857.132812 444.484375 857.132812 C 442.910156 857.132812 441.339844 857.058594 439.773438 856.902344 C 438.207031 856.75 436.652344 856.519531 435.105469 856.210938 C 433.5625 855.902344 432.039062 855.523438 430.53125 855.066406 C 429.023438 854.609375 427.542969 854.078125 426.089844 853.476562 C 424.632812 852.875 423.210938 852.203125 421.824219 851.460938 C 420.4375 850.71875 419.085938 849.910156 417.777344 849.035156 C 416.46875 848.160156 415.207031 847.222656 413.988281 846.226562 C 412.769531 845.226562 411.605469 844.171875 410.492188 843.058594 C 409.378906 841.945312 408.324219 840.78125 407.324219 839.5625 C 406.324219 838.347656 405.390625 837.082031 404.515625 835.773438 C 403.640625 834.464844 402.832031 833.117188 402.089844 831.730469 C 401.347656 830.339844 400.675781 828.921875 400.070312 827.464844 C 399.46875 826.011719 398.941406 824.53125 398.484375 823.023438 C 398.027344 821.519531 397.644531 819.992188 397.335938 818.449219 C 397.03125 816.90625 396.796875 815.351562 396.644531 813.785156 C 396.488281 812.21875 396.414062 810.648438 396.414062 809.074219 C 396.414062 807.5 396.488281 805.929688 396.644531 804.363281 C 396.796875 802.796875 397.03125 801.242188 397.335938 799.699219 C 397.644531 798.15625 398.027344 796.628906 398.484375 795.125 C 398.941406 793.617188 399.46875 792.136719 400.070312 790.683594 C 400.675781 789.226562 401.347656 787.808594 402.089844 786.417969 C 402.832031 785.03125 403.640625 783.683594 404.515625 782.375 C 405.390625 781.066406 406.324219 779.800781 407.324219 778.585938 C 408.324219 777.367188 409.378906 776.203125 410.492188 775.089844 C 411.605469 773.976562 412.773438 772.921875 413.988281 771.921875 C 415.207031 770.925781 416.46875 769.988281 417.777344 769.113281 C 419.085938 768.238281 420.4375 767.429688 421.824219 766.6875 C 423.210938 765.945312 424.632812 765.273438 426.089844 764.671875 C 427.542969 764.070312 429.023438 763.539062 430.53125 763.082031 C 432.039062 762.625 433.5625 762.246094 435.105469 761.9375 C 436.652344 761.628906 438.207031 761.398438 439.773438 761.246094 C 441.339844 761.089844 442.910156 761.015625 444.484375 761.015625 C 446.058594 761.015625 447.628906 761.089844 449.195312 761.246094 C 450.765625 761.398438 452.320312 761.628906 453.863281 761.9375 C 455.40625 762.246094 456.933594 762.625 458.441406 763.082031 C 459.945312 763.539062 461.425781 764.070312 462.882812 764.671875 C 464.335938 765.273438 465.757812 765.945312 467.144531 766.6875 C 468.535156 767.429688 469.882812 768.238281 471.191406 769.113281 C 472.5 769.988281 473.765625 770.925781 474.980469 771.921875 C 476.199219 772.921875 477.363281 773.976562 478.476562 775.089844 C 479.589844 776.203125 480.648438 777.367188 481.644531 778.585938 C 482.644531 779.800781 483.582031 781.066406 484.457031 782.375 C 485.332031 783.683594 486.140625 785.03125 486.882812 786.417969 C 487.625 787.808594 488.296875 789.226562 488.898438 790.683594 C 489.5 792.136719 490.03125 793.617188 490.488281 795.125 C 490.945312 796.628906 491.328125 798.15625 491.632812 799.699219 C 491.941406 801.242188 492.171875 802.796875 492.324219 804.363281 C 492.480469 805.929688 492.558594 807.5 492.558594 809.074219 Z M 492.558594 809.074219 " fill-opacity="1" fill-rule="nonzero"/><path fill="#ff5b5b" d="M 492.558594 448.625 C 492.558594 450.199219 492.480469 451.769531 492.324219 453.335938 C 492.171875 454.902344 491.941406 456.457031 491.632812 458 C 491.328125 459.542969 490.945312 461.070312 490.488281 462.574219 C 490.03125 464.082031 489.5 465.5625 488.898438 467.015625 C 488.296875 468.46875 487.625 469.890625 486.882812 471.28125 C 486.140625 472.667969 485.332031 474.015625 484.457031 475.324219 C 483.582031 476.632812 482.644531 477.898438 481.644531 479.113281 C 480.648438 480.328125 479.589844 481.496094 478.476562 482.609375 C 477.363281 483.722656 476.199219 484.777344 474.980469 485.773438 C 473.765625 486.773438 472.5 487.710938 471.191406 488.585938 C 469.882812 489.460938 468.535156 490.265625 467.144531 491.007812 C 465.757812 491.75 464.335938 492.421875 462.882812 493.027344 C 461.425781 493.628906 459.945312 494.15625 458.441406 494.613281 C 456.933594 495.070312 455.40625 495.453125 453.863281 495.761719 C 452.320312 496.066406 450.765625 496.296875 449.195312 496.453125 C 447.628906 496.605469 446.058594 496.683594 444.484375 496.683594 C 442.910156 496.683594 441.339844 496.605469 439.773438 496.453125 C 438.207031 496.296875 436.652344 496.066406 435.105469 495.761719 C 433.5625 495.453125 432.039062 495.070312 430.53125 494.613281 C 429.023438 494.15625 427.542969 493.628906 426.089844 493.027344 C 424.632812 492.421875 423.210938 491.75 421.824219 491.007812 C 420.4375 490.265625 419.085938 489.460938 417.777344 488.585938 C 416.46875 487.710938 415.207031 486.773438 413.988281 485.773438 C 412.769531 484.777344 411.605469 483.722656 410.492188 482.609375 C 409.378906 481.496094 408.324219 480.328125 407.324219 479.113281 C 406.324219 477.898438 405.390625 476.632812 404.515625 475.324219 C 403.640625 474.015625 402.832031 472.667969 402.089844 471.28125 C 401.347656 469.890625 400.675781 468.46875 400.070312 467.015625 C 399.46875 465.5625 398.941406 464.082031 398.484375 462.574219 C 398.027344 461.070312 397.644531 459.542969 397.335938 458 C 397.03125 456.457031 396.796875 454.902344 396.644531 453.335938 C 396.488281 451.769531 396.414062 450.199219 396.414062 448.625 C 396.414062 447.050781 396.488281 445.480469 396.644531 443.914062 C 396.796875 442.347656 397.03125 440.792969 397.335938 439.25 C 397.644531 437.703125 398.027344 436.179688 398.484375 434.671875 C 398.941406 433.167969 399.46875 431.6875 400.070312 430.234375 C 400.675781 428.777344 401.347656 427.355469 402.089844 425.96875 C 402.832031 424.582031 403.640625 423.230469 404.515625 421.921875 C 405.390625 420.613281 406.324219 419.351562 407.324219 418.136719 C 408.324219 416.917969 409.378906 415.753906 410.492188 414.640625 C 411.605469 413.527344 412.773438 412.472656 413.988281 411.472656 C 415.207031 410.476562 416.46875 409.539062 417.777344 408.664062 C 419.085938 407.789062 420.4375 406.980469 421.824219 406.238281 C 423.210938 405.496094 424.632812 404.824219 426.089844 404.222656 C 427.542969 403.621094 429.023438 403.089844 430.53125 402.632812 C 432.039062 402.175781 433.5625 401.792969 435.105469 401.488281 C 436.652344 401.179688 438.207031 400.949219 439.773438 400.796875 C 441.339844 400.640625 442.910156 400.5625 444.484375 400.5625 C 446.058594 400.5625 447.628906 400.640625 449.195312 400.796875 C 450.765625 400.949219 452.320312 401.179688 453.863281 401.488281 C 455.40625 401.792969 456.933594 402.175781 458.441406 402.632812 C 459.945312 403.089844 461.425781 403.621094 462.882812 404.222656 C 464.335938 404.824219 465.757812 405.496094 467.144531 406.238281 C 468.535156 406.980469 469.882812 407.789062 471.191406 408.664062 C 472.5 409.539062 473.765625 410.476562 474.980469 411.472656 C 476.199219 412.472656 477.363281 413.527344 478.476562 414.640625 C 479.589844 415.753906 480.648438 416.917969 481.644531 418.136719 C 482.644531 419.351562 483.582031 420.613281 484.457031 421.921875 C 485.332031 423.230469 486.140625 424.582031 486.882812 425.96875 C 487.625 427.355469 488.296875 428.777344 488.898438 430.234375 C 489.5 431.6875 490.03125 433.167969 490.488281 434.671875 C 490.945312 436.179688 491.328125 437.703125 491.632812 439.25 C 491.941406 440.792969 492.171875 442.347656 492.324219 443.914062 C 492.480469 445.480469 492.558594 447.050781 492.558594 448.625 Z M 492.558594 448.625 " fill-opacity="1" fill-rule="nonzero"/><path fill="#ff5b5b" d="M 1393.914062 628.847656 C 1393.914062 630.421875 1393.835938 631.992188 1393.683594 633.558594 C 1393.527344 635.125 1393.296875 636.679688 1392.988281 638.226562 C 1392.683594 639.769531 1392.300781 641.292969 1391.84375 642.800781 C 1391.386719 644.304688 1390.855469 645.785156 1390.253906 647.242188 C 1389.652344 648.695312 1388.980469 650.117188 1388.238281 651.503906 C 1387.496094 652.894531 1386.6875 654.242188 1385.8125 655.550781 C 1384.9375 656.859375 1384 658.121094 1383 659.339844 C 1382.003906 660.554688 1380.945312 661.71875 1379.832031 662.832031 C 1378.71875 663.945312 1377.554688 665 1376.339844 666 C 1375.121094 667 1373.859375 667.933594 1372.550781 668.808594 C 1371.238281 669.683594 1369.890625 670.492188 1368.503906 671.234375 C 1367.113281 671.976562 1365.691406 672.648438 1364.238281 673.25 C 1362.785156 673.851562 1361.304688 674.382812 1359.796875 674.839844 C 1358.289062 675.296875 1356.765625 675.679688 1355.21875 675.984375 C 1353.675781 676.292969 1352.121094 676.523438 1350.554688 676.679688 C 1348.988281 676.832031 1347.417969 676.910156 1345.839844 676.910156 C 1344.265625 676.910156 1342.695312 676.832031 1341.128906 676.679688 C 1339.5625 676.523438 1338.007812 676.292969 1336.464844 675.984375 C 1334.917969 675.679688 1333.394531 675.296875 1331.886719 674.839844 C 1330.378906 674.382812 1328.898438 673.851562 1327.445312 673.25 C 1325.992188 672.648438 1324.570312 671.976562 1323.179688 671.234375 C 1321.792969 670.492188 1320.441406 669.683594 1319.132812 668.808594 C 1317.824219 667.933594 1316.5625 667 1315.34375 666 C 1314.128906 665 1312.960938 663.945312 1311.847656 662.832031 C 1310.734375 661.71875 1309.679688 660.554688 1308.679688 659.339844 C 1307.683594 658.121094 1306.746094 656.859375 1305.871094 655.550781 C 1304.996094 654.242188 1304.1875 652.894531 1303.445312 651.503906 C 1302.703125 650.117188 1302.03125 648.695312 1301.429688 647.242188 C 1300.824219 645.785156 1300.296875 644.304688 1299.839844 642.800781 C 1299.382812 641.292969 1299 639.769531 1298.691406 638.226562 C 1298.386719 636.679688 1298.15625 635.125 1298 633.558594 C 1297.847656 631.992188 1297.769531 630.421875 1297.769531 628.847656 C 1297.769531 627.273438 1297.847656 625.703125 1298 624.136719 C 1298.15625 622.570312 1298.386719 621.015625 1298.691406 619.472656 C 1299 617.929688 1299.382812 616.40625 1299.839844 614.898438 C 1300.296875 613.390625 1300.824219 611.910156 1301.429688 610.457031 C 1302.03125 609.003906 1302.703125 607.582031 1303.445312 606.195312 C 1304.1875 604.804688 1304.996094 603.457031 1305.871094 602.148438 C 1306.746094 600.839844 1307.683594 599.578125 1308.679688 598.359375 C 1309.679688 597.144531 1310.734375 595.980469 1311.847656 594.867188 C 1312.960938 593.753906 1314.128906 592.695312 1315.34375 591.699219 C 1316.5625 590.699219 1317.824219 589.761719 1319.132812 588.890625 C 1320.441406 588.015625 1321.792969 587.207031 1323.179688 586.464844 C 1324.570312 585.722656 1325.992188 585.050781 1327.445312 584.449219 C 1328.898438 583.84375 1330.378906 583.316406 1331.886719 582.859375 C 1333.394531 582.402344 1334.917969 582.019531 1336.464844 581.710938 C 1338.007812 581.40625 1339.5625 581.175781 1341.128906 581.019531 C 1342.695312 580.867188 1344.265625 580.789062 1345.839844 580.789062 C 1347.417969 580.789062 1348.988281 580.867188 1350.554688 581.019531 C 1352.121094 581.175781 1353.675781 581.40625 1355.21875 581.710938 C 1356.765625 582.019531 1358.289062 582.402344 1359.796875 582.859375 C 1361.304688 583.316406 1362.785156 583.84375 1364.238281 584.449219 C 1365.691406 585.050781 1367.113281 585.722656 1368.503906 586.464844 C 1369.890625 587.207031 1371.238281 588.015625 1372.550781 588.890625 C 1373.859375 589.761719 1375.121094 590.699219 1376.339844 591.699219 C 1377.554688 592.695312 1378.71875 593.753906 1379.832031 594.867188 C 1380.945312 595.980469 1382.003906 597.144531 1383 598.359375 C 1384 599.578125 1384.9375 600.839844 1385.8125 602.148438 C 1386.6875 603.457031 1387.496094 604.804688 1388.238281 606.195312 C 1388.980469 607.582031 1389.652344 609.003906 1390.253906 610.457031 C 1390.855469 611.910156 1391.386719 613.390625 1391.84375 614.898438 C 1392.300781 616.40625 1392.683594 617.929688 1392.988281 619.472656 C 1393.296875 621.015625 1393.527344 622.570312 1393.683594 624.136719 C 1393.835938 625.703125 1393.914062 627.273438 1393.914062 628.847656 Z M 1393.914062 628.847656 " fill-opacity="1" fill-rule="nonzero"/><path fill="#ff5b5b" d="M 1393.914062 989.300781 C 1393.914062 990.875 1393.835938 992.445312 1393.683594 994.011719 C 1393.527344 995.578125 1393.296875 997.132812 1392.988281 998.675781 C 1392.683594 1000.21875 1392.300781 1001.746094 1391.84375 1003.25 C 1391.386719 1004.757812 1390.855469 1006.238281 1390.253906 1007.691406 C 1389.652344 1009.144531 1388.980469 1010.566406 1388.238281 1011.953125 C 1387.496094 1013.34375 1386.6875 1014.691406 1385.8125 1016 C 1384.9375 1017.308594 1384 1018.570312 1383 1019.789062 C 1382.003906 1021.003906 1380.945312 1022.167969 1379.832031 1023.28125 C 1378.71875 1024.394531 1377.554688 1025.453125 1376.339844 1026.449219 C 1375.121094 1027.449219 1373.859375 1028.386719 1372.550781 1029.257812 C 1371.238281 1030.132812 1369.890625 1030.941406 1368.503906 1031.683594 C 1367.113281 1032.425781 1365.691406 1033.097656 1364.238281 1033.699219 C 1362.785156 1034.304688 1361.304688 1034.832031 1359.796875 1035.289062 C 1358.289062 1035.746094 1356.765625 1036.128906 1355.21875 1036.4375 C 1353.675781 1036.742188 1352.121094 1036.972656 1350.554688 1037.128906 C 1348.988281 1037.28125 1347.417969 1037.359375 1345.839844 1037.359375 C 1344.265625 1037.359375 1342.695312 1037.28125 1341.128906 1037.128906 C 1339.5625 1036.972656 1338.007812 1036.742188 1336.464844 1036.4375 C 1334.917969 1036.128906 1333.394531 1035.746094 1331.886719 1035.289062 C 1330.378906 1034.832031 1328.898438 1034.304688 1327.445312 1033.699219 C 1325.992188 1033.097656 1324.570312 1032.425781 1323.179688 1031.683594 C 1321.792969 1030.941406 1320.441406 1030.132812 1319.132812 1029.257812 C 1317.824219 1028.386719 1316.5625 1027.449219 1315.34375 1026.449219 C 1314.128906 1025.453125 1312.960938 1024.394531 1311.847656 1023.28125 C 1310.734375 1022.167969 1309.679688 1021.003906 1308.679688 1019.789062 C 1307.683594 1018.570312 1306.746094 1017.308594 1305.871094 1016 C 1304.996094 1014.691406 1304.1875 1013.34375 1303.445312 1011.953125 C 1302.703125 1010.566406 1302.03125 1009.144531 1301.429688 1007.691406 C 1300.824219 1006.238281 1300.296875 1004.757812 1299.839844 1003.25 C 1299.382812 1001.746094 1299 1000.21875 1298.691406 998.675781 C 1298.386719 997.132812 1298.15625 995.578125 1298 994.011719 C 1297.847656 992.445312 1297.769531 990.875 1297.769531 989.300781 C 1297.769531 987.726562 1297.847656 986.15625 1298 984.589844 C 1298.15625 983.023438 1298.386719 981.46875 1298.691406 979.921875 C 1299 978.378906 1299.382812 976.855469 1299.839844 975.347656 C 1300.296875 973.84375 1300.824219 972.363281 1301.429688 970.90625 C 1302.03125 969.453125 1302.703125 968.03125 1303.445312 966.644531 C 1304.1875 965.257812 1304.996094 963.90625 1305.871094 962.597656 C 1306.746094 961.289062 1307.683594 960.027344 1308.679688 958.808594 C 1309.679688 957.59375 1310.734375 956.429688 1311.847656 955.316406 C 1312.960938 954.203125 1314.128906 953.148438 1315.34375 952.148438 C 1316.5625 951.148438 1317.824219 950.214844 1319.132812 949.339844 C 1320.441406 948.464844 1321.792969 947.65625 1323.179688 946.914062 C 1324.570312 946.171875 1325.992188 945.5 1327.445312 944.898438 C 1328.898438 944.296875 1330.378906 943.765625 1331.886719 943.308594 C 1333.394531 942.851562 1334.917969 942.46875 1336.464844 942.164062 C 1338.007812 941.855469 1339.5625 941.625 1341.128906 941.472656 C 1342.695312 941.316406 1344.265625 941.238281 1345.839844 941.238281 C 1347.417969 941.238281 1348.988281 941.316406 1350.554688 941.472656 C 1352.121094 941.625 1353.675781 941.855469 1355.21875 942.164062 C 1356.765625 942.46875 1358.289062 942.851562 1359.796875 943.308594 C 1361.304688 943.765625 1362.785156 944.296875 1364.238281 944.898438 C 1365.691406 945.5 1367.113281 946.171875 1368.503906 946.914062 C 1369.890625 947.65625 1371.238281 948.464844 1372.550781 949.339844 C 1373.859375 950.214844 1375.121094 951.148438 1376.339844 952.148438 C 1377.554688 953.148438 1378.71875 954.203125 1379.832031 955.316406 C 1380.945312 956.429688 1382.003906 957.59375 1383 958.808594 C 1384 960.027344 1384.9375 961.289062 1385.8125 962.597656 C 1386.6875 963.90625 1387.496094 965.257812 1388.238281 966.644531 C 1388.980469 968.03125 1389.652344 969.453125 1390.253906 970.90625 C 1390.855469 972.363281 1391.386719 973.84375 1391.84375 975.347656 C 1392.300781 976.855469 1392.683594 978.378906 1392.988281 979.921875 C 1393.296875 981.46875 1393.527344 983.023438 1393.683594 984.589844 C 1393.835938 986.15625 1393.914062 987.726562 1393.914062 989.300781 Z M 1393.914062 989.300781 " fill-opacity="1" fill-rule="nonzero"/><path fill="#ff5b5b" d="M 192.105469 628.847656 C 192.105469 630.421875 192.027344 631.992188 191.875 633.558594 C 191.71875 635.125 191.488281 636.679688 191.183594 638.226562 C 190.875 639.769531 190.492188 641.292969 190.035156 642.800781 C 189.578125 644.304688 189.046875 645.785156 188.445312 647.242188 C 187.84375 648.695312 187.171875 650.117188 186.429688 651.503906 C 185.6875 652.894531 184.878906 654.242188 184.003906 655.550781 C 183.128906 656.859375 182.191406 658.121094 181.195312 659.339844 C 180.195312 660.554688 179.136719 661.71875 178.023438 662.832031 C 176.910156 663.945312 175.746094 665 174.53125 666 C 173.3125 667 172.050781 667.933594 170.742188 668.808594 C 169.429688 669.683594 168.082031 670.492188 166.695312 671.234375 C 165.304688 671.976562 163.882812 672.648438 162.429688 673.25 C 160.976562 673.851562 159.496094 674.382812 157.988281 674.839844 C 156.480469 675.296875 154.957031 675.679688 153.410156 675.984375 C 151.867188 676.292969 150.3125 676.523438 148.746094 676.679688 C 147.179688 676.832031 145.609375 676.910156 144.03125 676.910156 C 142.457031 676.910156 140.886719 676.832031 139.320312 676.679688 C 137.753906 676.523438 136.199219 676.292969 134.65625 675.984375 C 133.109375 675.679688 131.585938 675.296875 130.078125 674.839844 C 128.570312 674.382812 127.089844 673.851562 125.636719 673.25 C 124.183594 672.648438 122.761719 671.976562 121.371094 671.234375 C 119.984375 670.492188 118.632812 669.683594 117.324219 668.808594 C 116.015625 667.933594 114.753906 667 113.535156 666 C 112.320312 665 111.152344 663.945312 110.039062 662.832031 C 108.925781 661.71875 107.871094 660.554688 106.871094 659.339844 C 105.875 658.121094 104.9375 656.859375 104.0625 655.550781 C 103.1875 654.242188 102.378906 652.894531 101.636719 651.503906 C 100.894531 650.117188 100.222656 648.695312 99.621094 647.242188 C 99.015625 645.785156 98.488281 644.304688 98.03125 642.800781 C 97.574219 641.292969 97.191406 639.769531 96.882812 638.226562 C 96.578125 636.679688 96.347656 635.125 96.191406 633.558594 C 96.039062 631.992188 95.960938 630.421875 95.960938 628.847656 C 95.960938 627.273438 96.039062 625.703125 96.191406 624.136719 C 96.347656 622.570312 96.578125 621.015625 96.882812 619.472656 C 97.191406 617.929688 97.574219 616.40625 98.03125 614.898438 C 98.488281 613.390625 99.015625 611.910156 99.621094 610.457031 C 100.222656 609.003906 100.894531 607.582031 101.636719 606.195312 C 102.378906 604.804688 103.1875 603.457031 104.0625 602.148438 C 104.9375 600.839844 105.875 599.578125 106.871094 598.359375 C 107.871094 597.144531 108.925781 595.980469 110.039062 594.867188 C 111.152344 593.753906 112.320312 592.695312 113.535156 591.699219 C 114.753906 590.699219 116.015625 589.761719 117.324219 588.890625 C 118.632812 588.015625 119.984375 587.207031 121.371094 586.464844 C 122.761719 585.722656 124.183594 585.050781 125.636719 584.449219 C 127.089844 583.84375 128.570312 583.316406 130.078125 582.859375 C 131.585938 582.402344 133.109375 582.019531 134.65625 581.710938 C 136.199219 581.40625 137.753906 581.175781 139.320312 581.019531 C 140.886719 580.867188 142.457031 580.789062 144.03125 580.789062 C 145.609375 580.789062 147.179688 580.867188 148.746094 581.019531 C 150.3125 581.175781 151.867188 581.40625 153.410156 581.710938 C 154.957031 582.019531 156.480469 582.402344 157.988281 582.859375 C 159.496094 583.316406 160.976562 583.84375 162.429688 584.449219 C 163.882812 585.050781 165.304688 585.722656 166.695312 586.464844 C 168.082031 587.207031 169.429688 588.015625 170.742188 588.890625 C 172.050781 589.761719 173.3125 590.699219 174.53125 591.699219 C 175.746094 592.695312 176.910156 593.753906 178.023438 594.867188 C 179.136719 595.980469 180.195312 597.144531 181.195312 598.359375 C 182.191406 599.578125 183.128906 600.839844 184.003906 602.148438 C 184.878906 603.457031 185.6875 604.804688 186.429688 606.195312 C 187.171875 607.582031 187.84375 609.003906 188.445312 610.457031 C 189.046875 611.910156 189.578125 613.390625 190.035156 614.898438 C 190.492188 616.40625 190.875 617.929688 191.183594 619.472656 C 191.488281 621.015625 191.71875 622.570312 191.875 624.136719 C 192.027344 625.703125 192.105469 627.273438 192.105469 628.847656 Z M 192.105469 628.847656 " fill-opacity="1" fill-rule="nonzero"/><path fill="#ff5b5b" d="M 192.105469 989.300781 C 192.105469 990.875 192.027344 992.445312 191.875 994.011719 C 191.71875 995.578125 191.488281 997.132812 191.183594 998.675781 C 190.875 1000.21875 190.492188 1001.746094 190.035156 1003.25 C 189.578125 1004.757812 189.046875 1006.238281 188.445312 1007.691406 C 187.84375 1009.144531 187.171875 1010.566406 186.429688 1011.953125 C 185.6875 1013.34375 184.878906 1014.691406 184.003906 1016 C 183.128906 1017.308594 182.191406 1018.570312 181.195312 1019.789062 C 180.195312 1021.003906 179.136719 1022.167969 178.023438 1023.28125 C 176.910156 1024.394531 175.746094 1025.453125 174.53125 1026.449219 C 173.3125 1027.449219 172.050781 1028.386719 170.742188 1029.257812 C 169.429688 1030.132812 168.082031 1030.941406 166.695312 1031.683594 C 165.304688 1032.425781 163.882812 1033.097656 162.429688 1033.699219 C 160.976562 1034.304688 159.496094 1034.832031 157.988281 1035.289062 C 156.480469 1035.746094 154.957031 1036.128906 153.410156 1036.4375 C 151.867188 1036.742188 150.3125 1036.972656 148.746094 1037.128906 C 147.179688 1037.28125 145.609375 1037.359375 144.03125 1037.359375 C 142.457031 1037.359375 140.886719 1037.28125 139.320312 1037.128906 C 137.753906 1036.972656 136.199219 1036.742188 134.65625 1036.4375 C 133.109375 1036.128906 131.585938 1035.746094 130.078125 1035.289062 C 128.570312 1034.832031 127.089844 1034.304688 125.636719 1033.699219 C 124.183594 1033.097656 122.761719 1032.425781 121.371094 1031.683594 C 119.984375 1030.941406 118.632812 1030.132812 117.324219 1029.257812 C 116.015625 1028.386719 114.753906 1027.449219 113.535156 1026.449219 C 112.320312 1025.453125 111.152344 1024.394531 110.039062 1023.28125 C 108.925781 1022.167969 107.871094 1021.003906 106.871094 1019.789062 C 105.875 1018.570312 104.9375 1017.308594 104.0625 1016 C 103.1875 1014.691406 102.378906 1013.34375 101.636719 1011.953125 C 100.894531 1010.566406 100.222656 1009.144531 99.621094 1007.691406 C 99.015625 1006.238281 98.488281 1004.757812 98.03125 1003.25 C 97.574219 1001.746094 97.191406 1000.21875 96.882812 998.675781 C 96.578125 997.132812 96.347656 995.578125 96.191406 994.011719 C 96.039062 992.445312 95.960938 990.875 95.960938 989.300781 C 95.960938 987.726562 96.039062 986.15625 96.191406 984.589844 C 96.347656 983.023438 96.578125 981.46875 96.882812 979.921875 C 97.191406 978.378906 97.574219 976.855469 98.03125 975.347656 C 98.488281 973.84375 99.015625 972.363281 99.621094 970.90625 C 100.222656 969.453125 100.894531 968.03125 101.636719 966.644531 C 102.378906 965.257812 103.1875 963.90625 104.0625 962.597656 C 104.9375 961.289062 105.875 960.027344 106.871094 958.808594 C 107.871094 957.59375 108.925781 956.429688 110.039062 955.316406 C 111.152344 954.203125 112.320312 953.148438 113.535156 952.148438 C 114.753906 951.148438 116.015625 950.214844 117.324219 949.339844 C 118.632812 948.464844 119.984375 947.65625 121.371094 946.914062 C 122.761719 946.171875 124.183594 945.5 125.636719 944.898438 C 127.089844 944.296875 128.570312 943.765625 130.078125 943.308594 C 131.585938 942.851562 133.109375 942.46875 134.65625 942.164062 C 136.199219 941.855469 137.753906 941.625 139.320312 941.472656 C 140.886719 941.316406 142.457031 941.238281 144.03125 941.238281 C 145.609375 941.238281 147.179688 941.316406 148.746094 941.472656 C 150.3125 941.625 151.867188 941.855469 153.410156 942.164062 C 154.957031 942.46875 156.480469 942.851562 157.988281 943.308594 C 159.496094 943.765625 160.976562 944.296875 162.429688 944.898438 C 163.882812 945.5 165.304688 946.171875 166.695312 946.914062 C 168.082031 947.65625 169.429688 948.464844 170.742188 949.339844 C 172.050781 950.214844 173.3125 951.148438 174.53125 952.148438 C 175.746094 953.148438 176.910156 954.203125 178.023438 955.316406 C 179.136719 956.429688 180.195312 957.59375 181.195312 958.808594 C 182.191406 960.027344 183.128906 961.289062 184.003906 962.597656 C 184.878906 963.90625 185.6875 965.257812 186.429688 966.644531 C 187.171875 968.03125 187.84375 969.453125 188.445312 970.90625 C 189.046875 972.363281 189.578125 973.84375 190.035156 975.347656 C 190.492188 976.855469 190.875 978.378906 191.183594 979.921875 C 191.488281 981.46875 191.71875 983.023438 191.875 984.589844 C 192.027344 986.15625 192.105469 987.726562 192.105469 989.300781 Z M 192.105469 989.300781 " fill-opacity="1" fill-rule="nonzero"/></svg>