<svg viewBox="0 0 300 200" xmlns="http://www.w3.org/2000/svg">
  <!-- Hexagon grid -->
  <g stroke="#ff5b5b" strokeWidth="3.5">
    <polygon points="150,20 200,50 200,110 150,140 100,110 100,50" fill="none"/>
    <polygon points="200,50 250,80 250,140 200,170 150,140 150,80" fill="none"/>
    <polygon points="100,50 150,80 150,140 100,170 50,140 50,80" fill="none"/>
  </g>

  <!-- M shape -->
  <g stroke="#ff5b5b" strokeWidth="5" strokeLinecap="round">
    <line x1="75" y1="140" x2="75" y2="60"/>
    <line x1="75" y1="60" x2="150" y2="110"/>
    <line x1="150" y1="110" x2="225" y2="60"/>
    <line x1="225" y1="60" x2="225" y2="140"/>
  </g>

  <!-- Circle nodes -->
  <g fill="#ff5b5b">
    <circle cx="150" cy="20" r="8"/>
    <circle cx="200" cy="50" r="8"/>
    <circle cx="200" cy="110" r="8"/>
    <circle cx="150" cy="140" r="8"/>
    <circle cx="100" cy="110" r="8"/>
    <circle cx="100" cy="50" r="8"/>
    <circle cx="250" cy="80" r="8"/>
    <circle cx="250" cy="140" r="8"/>
    <circle cx="50" cy="80" r="8"/>
    <circle cx="50" cy="140" r="8"/>
  </g>
</svg>